<mxfile host="app.diagrams.net" agent="Mozilla/5.0 (Windows NT 10.0; Win64; x64) AppleWebKit/537.36 (KHTML, like Gecko) Chrome/127.0.0.0 Safari/537.36 Edg/127.0.0.0" version="24.7.6">
  <diagram name="Page-1" id="b8rLB51CIh2DHifbcUi2">
    <mxGraphModel dx="1179" dy="667" grid="1" gridSize="10" guides="1" tooltips="1" connect="1" arrows="1" fold="1" page="1" pageScale="1" pageWidth="2339" pageHeight="3300" math="0" shadow="0">
      <root>
        <mxCell id="0" />
        <mxCell id="1" parent="0" />
        <mxCell id="gz3xRUbMnpf_Igk0dlvK-1" value="&lt;b&gt;CUSTOMER&lt;/b&gt;" style="rounded=0;whiteSpace=wrap;html=1;" vertex="1" parent="1">
          <mxGeometry x="830" y="300" width="120" height="40" as="geometry" />
        </mxCell>
        <mxCell id="gz3xRUbMnpf_Igk0dlvK-3" value="" style="endArrow=none;html=1;rounded=0;" edge="1" parent="1">
          <mxGeometry width="50" height="50" relative="1" as="geometry">
            <mxPoint x="889" y="420" as="sourcePoint" />
            <mxPoint x="889.38" y="340" as="targetPoint" />
          </mxGeometry>
        </mxCell>
        <mxCell id="gz3xRUbMnpf_Igk0dlvK-4" value="&lt;b&gt;have&lt;/b&gt;" style="rhombus;whiteSpace=wrap;html=1;" vertex="1" parent="1">
          <mxGeometry x="830" y="420" width="120" height="80" as="geometry" />
        </mxCell>
        <mxCell id="gz3xRUbMnpf_Igk0dlvK-5" value="" style="endArrow=none;html=1;rounded=0;" edge="1" parent="1">
          <mxGeometry width="50" height="50" relative="1" as="geometry">
            <mxPoint x="890" y="580" as="sourcePoint" />
            <mxPoint x="890" y="500" as="targetPoint" />
          </mxGeometry>
        </mxCell>
        <mxCell id="gz3xRUbMnpf_Igk0dlvK-6" value="&lt;br&gt;&lt;b style=&quot;forced-color-adjust: none; color: rgb(0, 0, 0); font-family: Helvetica; font-size: 12px; font-style: normal; font-variant-ligatures: normal; font-variant-caps: normal; letter-spacing: normal; orphans: 2; text-indent: 0px; text-transform: none; widows: 2; word-spacing: 0px; -webkit-text-stroke-width: 0px; white-space: normal; background-color: rgb(251, 251, 251); text-decoration-thickness: initial; text-decoration-style: initial; text-decoration-color: initial;&quot;&gt;BOOKING&lt;/b&gt;&lt;div&gt;&lt;br&gt;&lt;/div&gt;" style="rounded=0;whiteSpace=wrap;html=1;align=center;" vertex="1" parent="1">
          <mxGeometry x="830" y="580" width="120" height="40" as="geometry" />
        </mxCell>
        <mxCell id="gz3xRUbMnpf_Igk0dlvK-8" value="" style="endArrow=none;html=1;rounded=0;" edge="1" parent="1">
          <mxGeometry width="50" height="50" relative="1" as="geometry">
            <mxPoint x="890" y="700" as="sourcePoint" />
            <mxPoint x="890" y="620" as="targetPoint" />
          </mxGeometry>
        </mxCell>
        <mxCell id="gz3xRUbMnpf_Igk0dlvK-9" value="&lt;b&gt;STAFF&lt;/b&gt;" style="rounded=0;whiteSpace=wrap;html=1;" vertex="1" parent="1">
          <mxGeometry x="830" y="860" width="120" height="40" as="geometry" />
        </mxCell>
        <mxCell id="gz3xRUbMnpf_Igk0dlvK-10" value="&lt;b&gt;handle&lt;/b&gt;" style="rhombus;whiteSpace=wrap;html=1;" vertex="1" parent="1">
          <mxGeometry x="830" y="700" width="120" height="80" as="geometry" />
        </mxCell>
        <mxCell id="gz3xRUbMnpf_Igk0dlvK-11" value="" style="endArrow=none;html=1;rounded=0;exitX=0.5;exitY=0;exitDx=0;exitDy=0;" edge="1" parent="1" source="gz3xRUbMnpf_Igk0dlvK-9">
          <mxGeometry width="50" height="50" relative="1" as="geometry">
            <mxPoint x="840" y="830" as="sourcePoint" />
            <mxPoint x="890" y="780" as="targetPoint" />
          </mxGeometry>
        </mxCell>
        <mxCell id="gz3xRUbMnpf_Igk0dlvK-12" value="" style="endArrow=none;html=1;rounded=0;" edge="1" parent="1">
          <mxGeometry width="50" height="50" relative="1" as="geometry">
            <mxPoint x="950" y="600" as="sourcePoint" />
            <mxPoint x="1070" y="600" as="targetPoint" />
          </mxGeometry>
        </mxCell>
        <mxCell id="gz3xRUbMnpf_Igk0dlvK-13" value="&lt;b&gt;used&lt;/b&gt;" style="rhombus;whiteSpace=wrap;html=1;" vertex="1" parent="1">
          <mxGeometry x="1070" y="560" width="120" height="80" as="geometry" />
        </mxCell>
        <mxCell id="gz3xRUbMnpf_Igk0dlvK-14" value="" style="endArrow=none;html=1;rounded=0;" edge="1" parent="1">
          <mxGeometry width="50" height="50" relative="1" as="geometry">
            <mxPoint x="710" y="599.1700000000001" as="sourcePoint" />
            <mxPoint x="830" y="599.1700000000001" as="targetPoint" />
          </mxGeometry>
        </mxCell>
        <mxCell id="gz3xRUbMnpf_Igk0dlvK-15" value="&lt;b&gt;generate&lt;/b&gt;" style="rhombus;whiteSpace=wrap;html=1;" vertex="1" parent="1">
          <mxGeometry x="590" y="560" width="120" height="80" as="geometry" />
        </mxCell>
        <mxCell id="gz3xRUbMnpf_Igk0dlvK-16" value="&lt;b&gt;reviews&lt;/b&gt;" style="rhombus;whiteSpace=wrap;html=1;" vertex="1" parent="1">
          <mxGeometry x="1110" y="400" width="120" height="80" as="geometry" />
        </mxCell>
        <mxCell id="gz3xRUbMnpf_Igk0dlvK-17" value="" style="endArrow=none;html=1;rounded=0;" edge="1" parent="1">
          <mxGeometry width="50" height="50" relative="1" as="geometry">
            <mxPoint x="950" y="320" as="sourcePoint" />
            <mxPoint x="1170" y="320" as="targetPoint" />
          </mxGeometry>
        </mxCell>
        <mxCell id="gz3xRUbMnpf_Igk0dlvK-18" value="" style="endArrow=none;html=1;rounded=0;exitX=0.5;exitY=0;exitDx=0;exitDy=0;" edge="1" parent="1" source="gz3xRUbMnpf_Igk0dlvK-16">
          <mxGeometry width="50" height="50" relative="1" as="geometry">
            <mxPoint x="1120" y="370" as="sourcePoint" />
            <mxPoint x="1170" y="320" as="targetPoint" />
          </mxGeometry>
        </mxCell>
        <mxCell id="gz3xRUbMnpf_Igk0dlvK-19" value="" style="endArrow=none;html=1;rounded=0;exitX=1.005;exitY=0.196;exitDx=0;exitDy=0;exitPerimeter=0;" edge="1" parent="1" source="gz3xRUbMnpf_Igk0dlvK-7">
          <mxGeometry width="50" height="50" relative="1" as="geometry">
            <mxPoint x="1060" y="490" as="sourcePoint" />
            <mxPoint x="1110" y="440" as="targetPoint" />
          </mxGeometry>
        </mxCell>
        <mxCell id="gz3xRUbMnpf_Igk0dlvK-20" value="" style="endArrow=none;html=1;rounded=0;entryX=0;entryY=0.5;entryDx=0;entryDy=0;" edge="1" parent="1" target="gz3xRUbMnpf_Igk0dlvK-22">
          <mxGeometry width="50" height="50" relative="1" as="geometry">
            <mxPoint x="1190" y="600" as="sourcePoint" />
            <mxPoint x="1280" y="600" as="targetPoint" />
          </mxGeometry>
        </mxCell>
        <mxCell id="gz3xRUbMnpf_Igk0dlvK-22" value="&lt;b&gt;SERVICE&lt;/b&gt;" style="rounded=0;whiteSpace=wrap;html=1;" vertex="1" parent="1">
          <mxGeometry x="1270" y="580" width="120" height="40" as="geometry" />
        </mxCell>
        <mxCell id="gz3xRUbMnpf_Igk0dlvK-23" value="" style="endArrow=none;html=1;rounded=0;" edge="1" parent="1">
          <mxGeometry width="50" height="50" relative="1" as="geometry">
            <mxPoint x="510" y="600" as="sourcePoint" />
            <mxPoint x="590" y="600" as="targetPoint" />
          </mxGeometry>
        </mxCell>
        <mxCell id="gz3xRUbMnpf_Igk0dlvK-24" value="&lt;b&gt;INVOICE&lt;/b&gt;" style="rounded=0;whiteSpace=wrap;html=1;" vertex="1" parent="1">
          <mxGeometry x="390" y="580" width="120" height="40" as="geometry" />
        </mxCell>
        <mxCell id="gz3xRUbMnpf_Igk0dlvK-28" value="" style="endArrow=none;html=1;rounded=0;" edge="1" parent="1">
          <mxGeometry width="50" height="50" relative="1" as="geometry">
            <mxPoint x="870" y="580" as="sourcePoint" />
            <mxPoint x="890" y="560" as="targetPoint" />
          </mxGeometry>
        </mxCell>
        <mxCell id="gz3xRUbMnpf_Igk0dlvK-29" value="" style="endArrow=none;html=1;rounded=0;" edge="1" parent="1">
          <mxGeometry width="50" height="50" relative="1" as="geometry">
            <mxPoint x="908" y="580" as="sourcePoint" />
            <mxPoint x="890" y="560" as="targetPoint" />
          </mxGeometry>
        </mxCell>
        <mxCell id="gz3xRUbMnpf_Igk0dlvK-30" value="" style="endArrow=none;html=1;rounded=0;" edge="1" parent="1">
          <mxGeometry width="50" height="50" relative="1" as="geometry">
            <mxPoint x="890" y="640" as="sourcePoint" />
            <mxPoint x="910" y="620" as="targetPoint" />
          </mxGeometry>
        </mxCell>
        <mxCell id="gz3xRUbMnpf_Igk0dlvK-31" value="" style="endArrow=none;html=1;rounded=0;entryX=0.354;entryY=1.016;entryDx=0;entryDy=0;entryPerimeter=0;" edge="1" parent="1" target="gz3xRUbMnpf_Igk0dlvK-6">
          <mxGeometry width="50" height="50" relative="1" as="geometry">
            <mxPoint x="890" y="640" as="sourcePoint" />
            <mxPoint x="1030" y="580" as="targetPoint" />
          </mxGeometry>
        </mxCell>
        <mxCell id="gz3xRUbMnpf_Igk0dlvK-7" value="" style="whiteSpace=wrap;html=1;aspect=fixed;fillColor=none;" vertex="1" parent="1">
          <mxGeometry x="770" y="390" width="260" height="260" as="geometry" />
        </mxCell>
        <mxCell id="gz3xRUbMnpf_Igk0dlvK-33" value="" style="endArrow=none;html=1;rounded=0;entryX=1;entryY=0.25;entryDx=0;entryDy=0;" edge="1" parent="1" target="gz3xRUbMnpf_Igk0dlvK-6">
          <mxGeometry width="50" height="50" relative="1" as="geometry">
            <mxPoint x="970" y="600" as="sourcePoint" />
            <mxPoint x="1030" y="590" as="targetPoint" />
          </mxGeometry>
        </mxCell>
        <mxCell id="gz3xRUbMnpf_Igk0dlvK-34" value="" style="endArrow=none;html=1;rounded=0;exitX=1;exitY=0.75;exitDx=0;exitDy=0;" edge="1" parent="1" source="gz3xRUbMnpf_Igk0dlvK-6">
          <mxGeometry width="50" height="50" relative="1" as="geometry">
            <mxPoint x="980" y="640" as="sourcePoint" />
            <mxPoint x="970" y="600" as="targetPoint" />
          </mxGeometry>
        </mxCell>
      </root>
    </mxGraphModel>
  </diagram>
</mxfile>
